<?xml version="1.0" standalone="no"?>
<!DOCTYPE svg PUBLIC "-//W3C//DTD SVG 20010904//EN"
 "http://www.w3.org/TR/2001/REC-SVG-20010904/DTD/svg10.dtd">
<svg version="1.0" xmlns="http://www.w3.org/2000/svg"
 width="483.000000pt" height="483.000000pt" viewBox="0 0 483.000000 483.000000"
 preserveAspectRatio="xMidYMid meet">
<metadata>
Created by potrace 1.11, written by Peter Selinger 2001-2013
</metadata>
<g transform="translate(0.000000,483.000000) scale(0.100000,-0.100000)"
fill="#000000" stroke="none">
<path d="M2225 4820 c-172 -25 -239 -41 -360 -81 -102 -35 -131 -47 -230 -96
-67 -34 -248 -148 -290 -184 -11 -10 -31 -27 -45 -39 -49 -42 -136 -127 -175
-171 -67 -76 -81 -94 -142 -186 -142 -210 -234 -452 -280 -729 -10 -57 -15
-3316 -6 -3325 5 -5 26 15 49 44 22 29 139 180 259 337 121 157 222 287 225
290 3 3 39 50 80 105 41 55 78 102 81 105 3 3 42 53 87 113 l81 107 111 -142
c61 -79 119 -154 128 -167 9 -13 35 -47 58 -75 22 -28 107 -139 189 -246 82
-107 155 -202 162 -210 7 -8 55 -71 109 -140 53 -69 98 -124 101 -123 2 1 153
195 334 430 181 235 335 435 342 443 7 8 26 33 42 55 16 22 32 42 35 45 3 3
25 31 49 63 24 31 47 57 52 57 4 0 21 -17 36 -38 15 -20 30 -39 33 -42 3 -3
25 -32 50 -65 25 -33 83 -109 130 -170 47 -60 122 -157 166 -215 105 -137 331
-431 347 -450 6 -8 30 -39 51 -67 22 -29 43 -50 48 -47 4 3 8 733 7 1622 -1
1731 1 1686 -50 1892 -89 359 -292 678 -589 925 -136 114 -385 249 -545 298
-155 46 -193 56 -310 72 -63 10 -365 13 -420 5z"/>
</g>
</svg>
